<?xml version="1.0" encoding="UTF-8"?>
<svg width="173px" height="108px" viewBox="0 0 173 108" version="1.1" xmlns="http://www.w3.org/2000/svg" xmlns:xlink="http://www.w3.org/1999/xlink">
    <!-- Generator: sketchtool 53 (72520) - https://sketchapp.com -->
    <title>039580F7-F7ED-4726-82BF-3594CCCA84AD</title>
    <desc>Created with sketchtool.</desc>
    <g id="Page-1" stroke="none" stroke-width="1" fill="none" fill-rule="evenodd">
        <g id="00--alwadi--Home" transform="translate(-248.000000, -35.000000)" fill-rule="nonzero">
            <g id="Group-4" transform="translate(248.000000, 34.000000)">
                <g id="Asset-1">
                    <path d="M86.2610497,108.9 C88.1308076,108.753201 89.7347873,107.449285 90.3327624,105.59 C91.326396,102.565063 93.3744124,100.043793 96.0675691,98.53 C98.3037135,97.2799359 100.712653,96.4027108 103.207403,95.93 L103.46547,95.88 L103.46547,95.88 C106.117164,95.4048492 108.803983,95.1772867 111.494199,95.2 L168.756243,95.2 C169.757442,95.2053343 170.719246,94.792263 171.428107,94.0525005 C172.136967,93.3127379 172.534218,92.3075073 172.531657,91.26 L172.531657,72.99 C172.531657,45.91 151.90547,20.99 126.653204,20.99 L126.653204,20.99 C125.373647,20.9901631 124.166316,20.3696628 123.384365,19.31 C118.951562,13.2379471 113.135233,8.42472133 106.466685,5.31 C100.172555,2.36188205 93.337959,0.890794404 86.4426519,1 L86.0794475,1 C79.1884068,0.902821592 72.3604763,2.38411832 66.0745304,5.34 C59.4059827,8.45472133 53.5896533,13.2679471 49.1568508,19.34 C48.3748992,20.3996628 47.1675683,21.0201631 45.888011,21.02 L45.888011,21.02 C20.6357459,21.02 0.00955801105,45.91 0.00955801105,73.02 L0.00955801105,91.26 C0.00701884945,92.3040324 0.401649351,93.3062142 1.10636734,94.0453964 C1.81108532,94.7845786 2.76796585,95.2000034 3.76585635,95.2 L61.0183425,95.2 C63.7085529,95.177445 66.395359,95.4050064 69.0470718,95.88 L69.0470718,95.88 L69.3146961,95.93 C71.8095264,96.4023934 74.2185117,97.2796354 76.4545304,98.53 C79.147687,100.043793 81.1957034,102.565063 82.189337,105.59 C82.7873121,107.449285 84.3912918,108.753201 86.2610497,108.9" id="Path" fill="#FFFFFF"></path>
                    <path d="M86.2610497,98.58 C91.5466298,89.4 101.553867,87.29 109.534807,87.29 L166.529227,87.29 C167.684581,87.3698349 168.582693,88.3735852 168.582693,89.585 C168.582693,90.7964148 167.684581,91.8001651 166.529227,91.88 L109.544365,91.88 C98.6769061,91.88 91.651768,95.74 88.6505525,103.35 L88.5645304,103.57 C88.2254222,104.422373 87.4302445,104.97832 86.5477901,104.98 L85.9934254,104.98 C85.110971,104.97832 84.3157933,104.422373 83.9766851,103.57 L83.890663,103.35 C80.8894475,95.74 73.8643094,91.88 62.9968508,91.88 L6.00243094,91.88 C4.84707649,91.8001651 3.94896401,90.7964148 3.94896401,89.585 C3.94896401,88.3735852 4.84707649,87.3698349 6.00243094,87.29 L62.9872928,87.29 C70.968232,87.29 80.9850276,89.4 86.2610497,98.58" id="Path" fill="#009640"></path>
                    <path d="M128.660387,25.14 C127.296777,24.9533333 125.929982,24.8233333 124.56,24.75 C123.823319,24.7092793 123.116206,24.4335947 122.533702,23.96 C114.028227,12.3525669 100.953647,5.40265841 86.9779006,5.06 L86.8249724,5.06 L85.9551934,5.06 L85.8118232,5.06 C71.8824857,5.38991856 58.8406441,12.2840456 50.3229282,23.82 L50.2655801,23.9 L50.6861326,23.22 C50.0424607,24.067666 49.0815456,24.5849115 48.0481215,24.64 C26.2654144,25.81 4.01436464,40.85 3.94745856,80.18 C3.92875061,81.3472179 4.75223888,82.3423297 5.85906077,82.49 C6.46118286,82.5588915 7.06260008,82.354032 7.51054224,81.9274591 C7.9584844,81.5008863 8.20984475,80.8936505 8.20077348,80.26 C8.20077348,63.19 12.5401105,49.97 21.1040884,40.96 C28.549779,33.12 38.8246409,28.96 50.8295028,28.96 L50.9537569,28.96 C51.6436492,28.930478 52.27892,28.5591665 52.6646409,27.96 L53.8116022,26.46 L53.8116022,26.46 C61.6195047,15.9423625 73.5810869,9.71813016 86.3088398,9.55 C99.6782244,9.70963958 112.168569,16.5483759 119.914807,27.95 L120.220663,28.34 C120.5662,28.7938686 121.090204,29.0587875 121.644807,29.06 C123.7728,29.0569888 125.89887,29.1939255 128.010442,29.47 L128.086906,29.47 C128.762339,29.57 129.4314,29.6866667 130.094088,29.82 L130.371271,29.82 C131.450592,29.9500503 132.44293,29.1866482 132.646077,28.07 C132.842174,26.9950787 132.256837,25.9318766 131.269724,25.57 L131.116796,25.52 C130.326667,25.3533333 129.533352,25.21 128.736851,25.09 L128.660387,25.14 Z" id="Path" fill="#009FE3"></path>
                    <path d="M154.428785,44.63 C160.98558,53.41 164.311768,65.36 164.330884,80.25 C164.306708,81.4231333 165.130491,82.4272197 166.242486,82.58 C166.834929,82.6391664 167.42374,82.4341116 167.864105,82.0152676 C168.30447,81.5964235 168.555525,81.0026564 168.555525,80.38 C168.555525,63.08 164.244862,50.44 157.57337,41.64 L157.506464,41.58 C156.711586,40.6699898 155.3648,40.5986448 154.486133,41.42 C153.627069,42.2531292 153.571578,43.6554272 154.361878,44.56 L154.428785,44.63 Z" id="Path" fill="#009FE3"></path>
                    <path d="M155.776464,68.76 L155.375028,68.76 L155.375028,67.96 L155.98674,67.96 C156.254365,67.96 156.541105,67.96 156.541105,68.35 C156.541105,68.74 156.072762,68.75 155.766906,68.75 M156.808729,68.35 C156.812987,68.1552458 156.71846,67.9726645 156.560221,67.87 C156.398609,67.7816162 156.216202,67.743448 156.03453,67.76 L155.078729,67.76 L155.078729,70.01 L155.346354,70.01 L155.346354,69.01 L155.833812,69.01 L156.455083,70.01 L156.760939,70.01 L156.110994,69.01 C156.493315,69.01 156.789613,68.83 156.789613,68.39" id="Shape" fill="#D20A11"></path>
                    <path d="M155.833812,70.66 C155.148699,70.6640497 154.528892,70.2353802 154.264024,69.5743075 C153.999157,68.9132347 154.141528,68.1502918 154.62461,67.6419998 C155.107691,67.1337078 155.836094,66.9804322 156.469439,67.2537983 C157.102783,67.5271644 157.516011,68.1731943 157.516022,68.89 C157.516037,69.863652 156.764415,70.6544991 155.833812,70.66 M155.833812,66.88 C154.778063,66.88 153.92221,67.7754305 153.92221,68.88 C153.92221,69.9845695 154.778063,70.88 155.833812,70.88 C156.889561,70.88 157.745414,69.9845695 157.745414,68.88 C157.745414,67.7754305 156.889561,66.88 155.833812,66.88" id="Shape" fill="#D20A11"></path>
                    <rect id="Rectangle" fill="#D20A11" x="144.784751" y="45.74" width="7.46480663" height="25.14"></rect>
                    <path d="M148.674862,43.26 C150.786359,43.26 152.498066,41.469139 152.498066,39.26 C152.498066,37.050861 150.786359,35.26 148.674862,35.26 C146.563364,35.26 144.851657,37.050861 144.851657,39.26 C144.851657,41.469139 146.563364,43.26 148.674862,43.26" id="Path" fill="#D20A11"></path>
                    <path d="M33.5199448,61.68 C32.3443094,65.08 27.9285083,66.89 25.089779,64.28 C23.8095399,62.9149963 23.1188338,61.0614085 23.1781768,59.15 C23.1181462,56.5405659 24.369518,54.0890638 26.4756906,52.69 C26.9917925,52.3533553 27.535568,52.0655481 28.1005525,51.83 C29.822992,51.1521368 31.6652694,50.8723979 33.5008287,51.01 L33.5199448,61.68 Z M21.1518785,48.99 C17.7807339,51.1982442 15.7691609,55.0997203 15.8567403,59.26 C15.8567403,70.44 27.0109392,74.21 33.8640331,67.6 C34.3323757,69.39 34.9345304,70.88 38.2416022,70.88 L41.0229834,70.88 L41.0229834,45.18 C37.4004972,47.51 28.6358011,44.06 21.1518785,48.99 L21.1518785,48.99 Z" id="Shape" fill="#D20A11"></path>
                    <path d="M44.8844199,32.05 L43.3169061,32.05 L43.3169061,70.88 L50.7817127,70.88 L50.7817127,36.56 C50.7817127,33.11 48.3539779,32.05 44.8939779,32.05" id="Path" fill="#D20A11"></path>
                    <path d="M134.89221,62.04 C133.630552,65.44 129.252983,67.28 126.471602,64.62 C124.043867,62.29 123.422597,55.74 127.87663,52.77 C128.386099,52.4306436 128.923476,52.1394908 129.482376,51.9 C131.203251,51.2153216 133.046272,50.932057 134.882652,51.07 L134.89221,62.04 Z M136.450166,32.26 L134.89221,32.26 L134.89221,46.11 L134.89221,46.11 C131.069006,46.11 126.614972,46.3 122.466796,49.03 C119.095381,51.2961091 117.098826,55.2388256 117.200331,59.43 C117.200331,66.24 121.128674,70.98 127.398729,70.98 C130.277292,70.9543915 133.039884,69.78968 135.13116,67.72 C135.599503,69.51 136.201657,70.87 139.499171,70.87 L142.299669,70.87 L142.299669,36.78 C142.299669,33.34 139.871934,32.27 136.421492,32.27 L136.450166,32.26 Z" id="Shape" fill="#D20A11"></path>
                    <path d="M108.062873,61.68 C106.887238,65.08 102.471436,66.9 99.6327072,64.28 C98.3524681,62.9149963 97.6617619,61.0614085 97.721105,59.15 C97.6629784,56.5410395 98.9138813,54.090456 101.018619,52.69 C101.534315,52.3526024 102.078157,52.0647601 102.643481,51.83 C104.365996,51.1524446 106.208209,50.8727155 108.043757,51.01 L108.062873,61.68 Z M95.7043646,49 C92.3325309,51.2039622 90.3175238,55.1012585 90.3996685,59.26 C90.3996685,70.49 101.553867,74.2 108.406961,67.59 C108.875304,69.38 109.477459,70.95 112.774972,70.95 L115.556354,70.95 L115.556354,45.18 C111.905193,47.51 103.130939,44.06 95.6661326,48.99 L95.7043646,49 Z" id="Shape" fill="#D20A11"></path>
                    <path d="M83.861989,46.14 L80.0387845,58.93 L76.7508287,47.13 L70.6432597,47.13 L67.3744199,58.93 L63.5512155,46.14 L56.6694475,46.14 L62.4042541,68.21 C62.8171212,69.8663144 64.2670211,71.0060972 65.9024862,70.96 L70.4520994,70.96 L73.7209392,55.65 L76.989779,68.1 C77.3664672,69.8146884 78.8451528,71.0147083 80.5262431,70.97 L84.3494475,70.97 L90.9253591,46.14 L83.861989,46.14 Z" id="Path" fill="#D20A11"></path>
                    <path d="M75.3171271,81.63 C75.1842108,82.0330276 74.8734223,82.3440731 74.4826924,82.4651251 C74.0919625,82.586177 73.6694078,82.5023283 73.3481768,82.24 C73.050728,81.9198773 72.8918025,81.4861174 72.9085083,81.04 C72.9034773,80.421347 73.212804,79.8464265 73.7209392,79.53 L74.1032597,79.33 C74.5046162,79.1669909 74.9354209,79.098699 75.3649171,79.13 L75.3171271,81.63 Z M72.4497238,78.63 C71.6651613,79.1439409 71.1968229,80.0517625 71.2167403,81.02 C71.1457957,82.0944731 71.7252269,83.1004927 72.6663725,83.5368791 C73.6075181,83.9732655 74.7090737,83.7466787 75.4222652,82.97 C75.5369613,83.39 75.6707735,83.73 76.4449724,83.73 L77.0949171,83.73 L77.0949171,77.73 C76.2442541,78.27 74.2275138,77.47 72.4497238,78.62 L72.4497238,78.63 Z" id="Shape" fill="#D20A11"></path>
                    <path d="M68.301547,75.38 L67.9383425,75.38 L67.9383425,83.78 L69.6779006,83.78 L69.6779006,76.43 C69.6779006,75.63 69.1139779,75.43 68.301547,75.43" id="Path" fill="#D20A11"></path>
                    <path d="M94.5765193,81.71 C94.4414488,82.1113372 94.1297516,82.4199458 93.7392925,82.5389307 C93.3488335,82.6579157 92.9274959,82.5726854 92.6075691,82.31 C92.2725692,81.9080738 92.1175226,81.3756268 92.1814185,80.8465524 C92.2453143,80.317478 92.5220733,79.8421143 92.9420994,79.54 L93.3148619,79.34 C93.7164627,79.1784325 94.1476682,79.1134949 94.5765193,79.15 L94.5765193,81.71 Z M94.9492818,75.37 L94.5860773,75.37 L94.5860773,77.99 L94.5860773,77.99 C93.5863973,77.9223073 92.5896348,78.162164 91.718674,78.68 C90.930871,79.2097134 90.4636647,80.1304972 90.4856906,81.11 C90.4170098,81.8089104 90.6384276,82.5050361 91.0936924,83.021525 C91.5489573,83.5380138 92.1942509,83.8251551 92.8656354,83.81 C93.537823,83.8039353 94.1830235,83.5324921 94.6720994,83.05 C94.7867956,83.47 94.9206077,83.78 95.6948066,83.78 L96.3447514,83.78 L96.3447514,76.43 C96.3447514,75.63 95.7712707,75.43 94.9683978,75.43 L94.9492818,75.37 Z" id="Shape" fill="#D20A11"></path>
                    <path d="M83.3649724,78 L81.8834807,78 L79.58,80.18 L79.58,76.42 C79.58,75.62 79.0160773,75.42 78.2036464,75.42 L77.840442,75.42 L77.840442,83.82 L79.58,83.82 L79.58,81.22 L81.300442,83.82 L83.4127624,83.82 L81.0997238,80.26 L83.3649724,78 Z" id="Path" fill="#D20A11"></path>
                    <path d="M87.6374033,78 C86.9354603,77.967997 86.2366488,78.1155953 85.601547,78.43 L85.601547,76.43 C85.601547,75.63 85.0280663,75.43 84.2251934,75.43 L83.8524309,75.43 L83.8524309,83.83 L85.591989,83.83 L85.591989,79.83 C85.9813329,79.3896565 86.5288056,79.1395143 87.1021547,79.14 C87.8476796,79.14 88.201326,79.56 88.201326,80.02 L88.201326,83.77 L89.931326,83.77 L89.931326,79.91 C89.8837283,79.3377233 89.615175,78.8104877 89.1876738,78.4500296 C88.7601726,78.0895715 88.2106822,77.9270534 87.6660773,78" id="Path" fill="#D20A11"></path>
                    <path d="M106.027017,78.93 C105.377072,79.01 105.348398,79.26 105.348398,79.93 L105.348398,83.75 L103.60884,83.75 L103.60884,79.09 C103.635959,78.6344037 103.954521,78.2558484 104.383039,78.17 C105.174817,78.2034712 105.967551,78.1363139 106.743867,77.97 C107.087956,77.86 107.030608,77.91 107.030608,77.91 C107.030608,78.91 106.390221,78.91 106.390221,78.91" id="Path" fill="#D20A11"></path>
                    <path d="M65.4150276,81.63 C65.2821113,82.0330276 64.9713229,82.3440731 64.580593,82.4651251 C64.1898631,82.586177 63.7673083,82.5023283 63.4460773,82.24 C63.147656,81.9205286 62.9885637,81.4863132 63.0064088,81.04 C62.9893202,80.4309004 63.2797757,79.8573137 63.7710497,79.53 L64.1533702,79.33 C64.5548078,79.1673097 64.9855442,79.0990287 65.4150276,79.13 L65.4150276,81.63 Z M62.5476243,78.63 C61.74524,79.1477454 61.2679115,80.0741161 61.2955249,81.06 C61.2245802,82.1344731 61.8040115,83.1404927 62.7451571,83.5768791 C63.6863026,84.0132655 64.7878582,83.7866787 65.5010497,83.01 C65.6061878,83.43 65.749558,83.77 66.5237569,83.77 L67.1737017,83.77 L67.1737017,77.77 C66.3230387,78.31 64.3062983,77.51 62.5285083,78.66 L62.5476243,78.63 Z" id="Shape" fill="#D20A11"></path>
                    <path d="M101.085525,81.63 C100.952609,82.0330276 100.64182,82.3440731 100.25109,82.4651251 C99.8603603,82.586177 99.4378056,82.5023283 99.1165746,82.24 C98.8191258,81.9198773 98.6602003,81.4861174 98.6769061,81.04 C98.6637847,80.4293901 98.9576221,79.8562886 99.451105,79.53 L99.8238674,79.33 C100.225305,79.1673097 100.656041,79.0990287 101.085525,79.13 L101.085525,81.63 Z M98.2181215,78.63 C97.4335591,79.1439409 96.9652206,80.0517625 96.9851381,81.02 C96.9141935,82.0944731 97.4936247,83.1004927 98.4347703,83.5368791 C99.3759159,83.9732655 100.477471,83.7466787 101.190663,82.97 C101.305359,83.39 101.439171,83.73 102.21337,83.73 L102.853757,83.73 L102.853757,77.73 C102.003094,78.27 99.9863536,77.47 98.2181215,78.62 L98.2181215,78.63 Z" id="Shape" fill="#D20A11"></path>
                    <path d="M107.02105,77.94 L107.02105,77.78 C106.428453,78.16 105.740276,77.9 104.507293,78.08 C104.001938,78.1117798 103.607928,78.5503227 103.608838,79.08" id="Path" fill="#D20A11"></path>
                </g>
            </g>
        </g>
    </g>
</svg>