<?xml version="1.0" encoding="UTF-8"?>
<svg width="12px" height="17px" viewBox="0 0 12 17" version="1.1" xmlns="http://www.w3.org/2000/svg" xmlns:xlink="http://www.w3.org/1999/xlink">
    <!-- Generator: sketchtool 53 (72520) - https://sketchapp.com -->
    <title>88C6788B-4B99-4112-9D37-27F6E606705E</title>
    <desc>Created with sketchtool.</desc>
    <g id="Page-1" stroke="none" stroke-width="1" fill="none" fill-rule="evenodd">
        <g id="00--alwadi--Home" transform="translate(-1515.000000, -72.000000)" fill="#0C892E" fill-rule="nonzero">
            <g id="Group-4" transform="translate(248.000000, 34.000000)">
                <g id="Group-2" transform="translate(1071.000000, 28.000000)">
                    <g id="iconfinder_24_171492-(2)" transform="translate(196.000000, 10.000000)">
                        <path d="M11.9612673,14.9813099 L0.0942178218,14.9813099 L0.0942178218,16.9679155 L11.9612673,16.9679155 L11.9612673,14.9813099 Z M11.7646337,7.03656338 C11.4603564,6.72984507 10.9666931,6.72984507 10.6626535,7.03656338 L6.79722772,10.9317183 L6.79722772,0.785591549 C6.79722772,0.351492958 6.44780198,0 6.01758416,0 C5.5870099,0 5.23817822,0.351612676 5.23817822,0.785711268 L5.23817822,10.931838 L1.42479208,7.08947887 C1.12039604,6.78252113 0.626970297,6.78252113 0.322574257,7.08947887 C0.0178217822,7.39619718 0.0178217822,7.89350704 0.322574257,8.20034507 L5.46641584,13.3833099 C5.48423762,13.4017465 5.50372277,13.4191056 5.52356436,13.4357465 C5.53259406,13.443169 5.5419802,13.4492746 5.55136634,13.4568169 C5.56253465,13.4645986 5.57346535,13.4738169 5.58451485,13.4814789 C5.5960396,13.4890211 5.60732673,13.4951268 5.61849505,13.5023099 C5.6289505,13.5087746 5.63916832,13.5148803 5.6499802,13.5206268 C5.66186139,13.527331 5.67362376,13.5325986 5.68538614,13.5382254 C5.69691089,13.5436127 5.7079604,13.5491197 5.7190099,13.5540282 C5.73065347,13.5588169 5.74229703,13.5626479 5.75405941,13.5665986 C5.76641584,13.5711479 5.77865347,13.5759366 5.79112871,13.5796479 C5.80312871,13.5832394 5.81453465,13.5858732 5.82641584,13.5888662 C5.83924752,13.5916197 5.85184158,13.5958099 5.86491089,13.5982042 C5.87857426,13.6007183 5.89235644,13.6021549 5.9060198,13.604669 C5.91754455,13.6064648 5.92883168,13.6085 5.94035644,13.6096972 C5.99144554,13.6147254 6.04312871,13.6147254 6.09421782,13.6096972 C6.10609901,13.6085 6.11691089,13.6064648 6.12855446,13.604669 C6.14209901,13.6021549 6.15623762,13.6011972 6.16942574,13.5982042 C6.18237624,13.5956901 6.19520792,13.5916197 6.20792079,13.5888662 C6.2200396,13.5858732 6.23156436,13.5832394 6.24344554,13.5796479 C6.25592079,13.5759366 6.2680396,13.5711479 6.28051485,13.5665986 C6.29263366,13.563007 6.30368317,13.5591761 6.31556436,13.5540282 C6.3269703,13.5491197 6.33825743,13.5436127 6.34918812,13.5382254 C6.36106931,13.5324789 6.37283168,13.5272113 6.38447525,13.5206268 C6.39528713,13.5148803 6.40550495,13.5081761 6.41584158,13.5023099 C6.42748515,13.4951268 6.43877228,13.4891408 6.44994059,13.4814789 C6.46134653,13.4738169 6.47239604,13.4645986 6.48332673,13.4568169 C6.49235644,13.4493944 6.50186139,13.4432887 6.5110099,13.4357465 C6.54059406,13.4113239 6.56792079,13.3834296 6.59346535,13.3555352 C6.60249505,13.3475141 6.61176238,13.3398521 6.62067327,13.3312324 L11.7645149,8.14790845 C12.0690297,7.84047183 12.0690297,7.34316197 11.7646337,7.03656338 L11.7646337,7.03656338 Z" id="Shape"></path>
                    </g>
                </g>
            </g>
        </g>
    </g>
</svg>