<?xml version="1.0" encoding="UTF-8"?>
<svg width="51px" height="52px" viewBox="0 0 51 52" version="1.1" xmlns="http://www.w3.org/2000/svg" xmlns:xlink="http://www.w3.org/1999/xlink">
    <!-- Generator: sketchtool 53 (72520) - https://sketchapp.com -->
    <title>132C94F1-A9A4-4686-83C8-EE86599FD02C</title>
    <desc>Created with sketchtool.</desc>
    <g id="Page-1" stroke="none" stroke-width="1" fill="none" fill-rule="evenodd">
        <g id="08--alwadi--Our-Commitment" transform="translate(-244.000000, -1678.000000)" fill="#0C892E">
            <g id="Group" transform="translate(244.000000, 1678.000000)">
                <path d="M50.3656,26.1499 C50.3656,25.8359 50.1116,25.5819 49.7986,25.5819 L25.7516,25.5819 L25.7516,1.5359 C25.7516,1.2219 25.4966,0.9669 25.1826,0.9669 C11.2656,0.9669 0.0006,12.2299 0.0006,26.1499 C0.0006,40.0679 11.2636,51.3329 25.1826,51.3329 C38.8676,51.3329 50.3656,40.2749 50.3656,26.1499 L50.3656,26.1499 Z M37.0946,37.9489 C38.0616,34.5229 38.5946,30.6969 38.6406,26.7179 L49.2216,26.7179 C49.0816,32.7119 46.7376,38.1719 42.9696,42.3149 C41.2216,40.5689 39.2526,39.1079 37.0946,37.9489 L37.0946,37.9489 Z M37.5036,26.7179 C37.4586,30.5109 36.9616,34.1549 36.0616,37.4249 C32.8086,35.8669 29.3476,35.0439 25.7516,34.9659 L25.7516,26.7179 L37.5036,26.7179 Z M7.3976,42.3159 C3.6286,38.1719 1.2846,32.7129 1.1446,26.7179 L11.7246,26.7179 C11.7716,30.6969 12.3046,34.5229 13.2706,37.9499 C11.1136,39.1079 9.1456,40.5699 7.3976,42.3159 L7.3976,42.3159 Z M7.3966,9.9849 C9.1446,11.7299 11.1126,13.1919 13.2706,14.3509 C12.3046,17.7769 11.7716,21.6029 11.7246,25.5819 L1.1446,25.5819 C1.2846,19.5869 3.6286,14.1269 7.3966,9.9849 L7.3966,9.9849 Z M12.8616,26.7179 L24.6146,26.7179 L24.6146,34.9639 C21.0816,35.0429 17.6096,35.8409 14.3046,37.4249 C13.4046,34.1549 12.9066,30.5109 12.8616,26.7179 L12.8616,26.7179 Z M24.6146,36.1019 L24.6146,50.1699 C21.6026,49.8989 18.7646,47.4809 16.5696,43.2909 C15.8106,41.8419 15.1596,40.2389 14.6246,38.5199 C17.7006,37.0139 21.0896,36.1829 24.6146,36.1019 L24.6146,36.1019 Z M25.7516,36.1019 C29.2786,36.1829 32.6666,37.0119 35.7416,38.5179 C35.2066,40.2379 34.5556,41.8409 33.7966,43.2909 C31.6016,47.4809 28.7636,49.8989 25.7516,50.1699 L25.7516,36.1019 Z M12.8616,25.5819 C12.9066,21.7889 13.4046,18.1439 14.3046,14.8749 C17.5566,16.4329 21.0186,17.2549 24.6146,17.3339 L24.6146,25.5819 L12.8616,25.5819 Z M24.6146,16.1979 C21.0876,16.1169 17.6996,15.2869 14.6246,13.7819 C15.1596,12.0619 15.8106,10.4589 16.5696,9.0089 C18.7646,4.8189 21.6026,2.4009 24.6146,2.1289 L24.6146,16.1979 Z M20.3866,2.5849 C17.0316,4.9479 14.8406,9.3469 13.6006,13.2489 C11.6366,12.1649 9.8136,10.7959 8.1816,9.1609 C11.4586,5.8809 15.6756,3.5429 20.3866,2.5849 L20.3866,2.5849 Z M8.1826,43.1389 C9.8136,41.5039 11.6366,40.1349 13.6006,39.0509 C14.8406,42.9509 17.0316,47.3509 20.3866,49.7139 C15.6756,48.7559 11.4586,46.4179 8.1826,43.1389 L8.1826,43.1389 Z M29.9796,49.7139 C33.3346,47.3519 35.5256,42.9529 36.7646,39.0509 C38.7296,40.1349 40.5526,41.5039 42.1836,43.1389 C38.9076,46.4179 34.6916,48.7559 29.9796,49.7139 L29.9796,49.7139 Z" id="Fill-1"></path>
                <path d="M4.1498,44.3403 C2.2688,44.3403 0.7398,45.8703 0.7398,47.7513 C0.7398,49.6313 2.2688,51.1613 4.1498,51.1613 C6.0318,51.1613 7.5608,49.6313 7.5608,47.7513 C7.5608,45.8703 6.0318,44.3403 4.1498,44.3403 M4.1498,50.0263 C2.8958,50.0263 1.8768,49.0043 1.8768,47.7513 C1.8768,46.4973 2.8958,45.4773 4.1498,45.4773 C5.4038,45.4773 6.4238,46.4973 6.4238,47.7513 C6.4238,49.0043 5.4038,50.0263 4.1498,50.0263" id="Fill-4"></path>
                <path d="M7.561,5.685 C9.128,5.685 10.403,4.411 10.403,2.843 C10.403,1.275 9.128,-2.84217094e-14 7.561,-2.84217094e-14 C5.994,-2.84217094e-14 4.719,1.275 4.719,2.843 C4.719,4.411 5.994,5.685 7.561,5.685 M7.561,1.137 C8.501,1.137 9.266,1.902 9.266,2.843 C9.266,3.784 8.501,4.548 7.561,4.548 C6.621,4.548 5.856,3.784 5.856,2.843 C5.856,1.902 6.621,1.137 7.561,1.137" id="Fill-6"></path>
                <path d="M48.2055,1.7055 C48.6775,1.7055 49.0595,2.0875 49.0595,2.5595 C49.0595,3.0295 48.6775,3.4105 48.2055,3.4105 C47.7345,3.4105 47.3525,3.0295 47.3525,2.5595 C47.3525,2.0875 47.7345,1.7055 48.2055,1.7055" id="Fill-8"></path>
                <path d="M49.9115,40.3608 C50.3825,40.3608 50.7645,40.7428 50.7645,41.2148 C50.7645,41.6848 50.3825,42.0658 49.9115,42.0658 C49.4395,42.0658 49.0575,41.6848 49.0575,41.2148 C49.0575,40.7428 49.4395,40.3608 49.9115,40.3608" id="Fill-10"></path>
                <path d="M42.2367,48.3198 C42.7077,48.3198 43.0907,48.7018 43.0907,49.1728 C43.0907,49.6428 42.7077,50.0248 42.2367,50.0248 C41.7657,50.0248 41.3837,49.6428 41.3837,49.1728 C41.3837,48.7018 41.7657,48.3198 42.2367,48.3198" id="Fill-13"></path>
                <path d="M1.5922,39.7925 C2.0632,39.7925 2.4452,40.1745 2.4452,40.6465 C2.4452,41.1165 2.0632,41.4975 1.5922,41.4975 C1.1212,41.4975 0.7382,41.1165 0.7382,40.6465 C0.7382,40.1745 1.1212,39.7925 1.5922,39.7925" id="Fill-15"></path>
                <path d="M1.0238,7.3901 C1.4948,7.3901 1.8768,7.7721 1.8768,8.2441 C1.8768,8.7141 1.4948,9.0951 1.0238,9.0951 C0.5528,9.0951 0.1698,8.7141 0.1698,8.2441 C0.1698,7.7721 0.5528,7.3901 1.0238,7.3901" id="Fill-17"></path>
                <path d="M15.2348,0.0005 C15.7068,0.0005 16.0888,0.3825 16.0888,0.8535 C16.0888,1.3245 15.7068,1.7055 15.2348,1.7055 C14.7638,1.7055 14.3818,1.3245 14.3818,0.8535 C14.3818,0.3825 14.7638,0.0005 15.2348,0.0005" id="Fill-19"></path>
                <path d="M25.183,51.3325 C39.103,51.3325 50.367,40.0675 50.367,26.1495 C50.367,12.2295 39.101,0.9665 25.183,0.9665 C24.87,0.9665 24.615,1.2215 24.615,1.5355 L24.615,25.5815 L0.569,25.5815 C0.255,25.5815 -8.17124146e-13,25.8355 -8.17124146e-13,26.1495 C-8.17124146e-13,40.2745 11.498,51.3325 25.183,51.3325 L25.183,51.3325 Z M7.397,42.3155 C3.629,38.1725 1.285,32.7135 1.145,26.7185 L11.725,26.7185 C11.772,30.6965 12.305,34.5225 13.271,37.9495 C11.113,39.1075 9.145,40.5695 7.397,42.3155 L7.397,42.3155 Z M24.615,26.7185 L24.615,34.9655 C21.019,35.0445 17.558,35.8665 14.305,37.4245 C13.405,34.1555 12.908,30.5115 12.862,26.7185 L24.615,26.7185 Z M37.095,37.9495 C38.061,34.5225 38.595,30.6965 38.641,26.7185 L49.222,26.7185 C49.082,32.7135 46.737,38.1735 42.969,42.3155 C41.22,40.5695 39.252,39.1075 37.095,37.9495 L37.095,37.9495 Z M49.222,25.5815 L38.641,25.5815 C38.595,21.6025 38.061,17.7765 37.095,14.3505 C39.253,13.1915 41.222,11.7305 42.969,9.9845 C46.738,14.1265 49.082,19.5865 49.222,25.5815 L49.222,25.5815 Z M36.062,37.4245 C32.757,35.8405 29.286,35.0425 25.752,34.9655 L25.752,26.7185 L37.504,26.7185 C37.459,30.5115 36.962,34.1555 36.062,37.4245 L36.062,37.4245 Z M35.742,38.5195 C35.206,40.2385 34.556,41.8415 33.796,43.2905 C31.602,47.4805 28.764,49.8985 25.752,50.1695 L25.752,36.1025 C29.277,36.1825 32.665,37.0135 35.742,38.5195 L35.742,38.5195 Z M24.615,50.1695 C21.603,49.8985 18.764,47.4805 16.57,43.2905 C15.81,41.8415 15.161,40.2375 14.624,38.5175 C17.701,37.0125 21.087,36.1825 24.615,36.1025 L24.615,50.1695 Z M37.504,25.5815 L25.752,25.5815 L25.752,17.3345 C29.347,17.2555 32.809,16.4325 36.062,14.8745 C36.962,18.1445 37.459,21.7885 37.504,25.5815 L37.504,25.5815 Z M25.752,2.1305 C28.764,2.4005 31.602,4.8185 33.796,9.0085 C34.556,10.4585 35.207,12.0615 35.742,13.7815 C32.667,15.2875 29.279,16.1165 25.752,16.1975 L25.752,2.1305 Z M42.184,9.1615 C40.552,10.7955 38.73,12.1645 36.765,13.2485 C35.526,9.3465 33.334,4.9485 29.98,2.5845 C34.692,3.5425 38.908,5.8825 42.184,9.1615 L42.184,9.1615 Z M29.98,49.7145 C33.335,47.3515 35.527,42.9505 36.765,39.0515 C38.73,40.1345 40.552,41.5055 42.184,43.1395 C38.908,46.4175 34.692,48.7565 29.98,49.7145 L29.98,49.7145 Z M8.182,43.1385 C9.814,41.5045 11.636,40.1345 13.601,39.0505 C14.84,42.9525 17.033,47.3515 20.386,49.7145 C15.674,48.7565 11.458,46.4175 8.182,43.1385 L8.182,43.1385 Z" id="Fill-21"></path>
            </g>
        </g>
    </g>
</svg>