<?xml version="1.0" encoding="UTF-8"?>
<svg width="62px" height="61px" viewBox="0 0 62 61" version="1.1" xmlns="http://www.w3.org/2000/svg" xmlns:xlink="http://www.w3.org/1999/xlink">
    <!-- Generator: sketchtool 53 (72520) - https://sketchapp.com -->
    <title>8398074A-ABBB-46BE-ABD9-E2C609A2C9A0</title>
    <desc>Created with sketchtool.</desc>
    <g id="Page-1" stroke="none" stroke-width="1" fill="none" fill-rule="evenodd">
        <g id="08--alwadi--Our-Commitment" transform="translate(-240.000000, -1483.000000)" fill="#0C892E">
            <g id="Group-29" transform="translate(240.000000, 1483.000000)">
                <path d="M46.5738,20.8177 C46.5418,20.4697 46.2528,20.2017 45.9038,20.1947 C36.5678,20.0107 30.2488,12.4067 30.1858,12.3297 C29.9108,11.9917 29.3938,11.9957 29.1228,12.3297 C29.0588,12.4057 22.7398,20.0107 13.4048,20.1947 C13.0548,20.2017 12.7658,20.4697 12.7338,20.8177 L11.8378,30.4567 C11.2558,36.7137 14.0538,42.8917 19.1418,46.5797 L29.2518,53.9087 C29.4918,54.0837 29.8158,54.0837 30.0568,53.9087 L40.1668,46.5797 C45.2538,42.8917 48.0528,36.7137 47.4698,30.4567 L46.5738,20.8177 Z M39.3608,45.4677 L29.6548,52.5057 L19.9478,45.4677 C15.2518,42.0627 12.6678,36.3597 13.2048,30.5837 L14.0458,21.5457 C18.9928,21.2857 23.0388,19.1207 25.5988,17.3107 C27.5618,15.9227 28.9488,14.5547 29.6548,13.7977 C30.3588,14.5547 31.7458,15.9227 33.7088,17.3107 C36.2688,19.1207 40.3148,21.2857 45.2618,21.5457 L46.1028,30.5837 C46.6398,36.3597 44.0558,42.0627 39.3608,45.4677 L39.3608,45.4677 Z" id="Fill-1"></path>
                <path d="M16.8209,31.2708 L17.4749,24.2398 C17.5099,23.8628 17.2329,23.5278 16.8549,23.4928 C16.4779,23.4578 16.1429,23.7348 16.1079,24.1128 L15.4549,31.1438 C15.1529,34.3808 16.0509,37.6038 17.9809,40.2198 C18.2049,40.5228 18.6339,40.5908 18.9409,40.3648 C19.2459,40.1398 19.3109,39.7098 19.0869,39.4048 C17.3559,37.0608 16.5509,34.1718 16.8209,31.2708" id="Fill-3"></path>
                <path d="M52.0084,16.3133 C51.9764,15.9653 51.6884,15.6973 51.3384,15.6903 C44.7854,15.5613 39.3944,12.7023 36.0254,10.3263 C32.3474,7.7333 30.2064,5.1333 30.1874,5.1083 C29.9124,4.7713 29.3974,4.7703 29.1214,5.1083 C29.0374,5.2113 20.5604,15.4423 7.9694,15.6903 C7.6194,15.6973 7.3314,15.9653 7.2994,16.3133 L6.1034,29.1793 C5.3304,37.4813 8.9964,45.5903 15.7574,50.4923 L29.2514,60.2753 C29.4914,60.4493 29.8174,60.4493 30.0574,60.2753 L43.5504,50.4923 C50.3004,45.5983 53.9794,37.4943 53.2054,29.1793 L52.0084,16.3133 Z M42.7444,49.3803 L29.6544,58.8713 L16.5644,49.3803 C10.2304,44.7883 6.7444,37.0963 7.4694,29.3063 L8.6114,17.0433 C15.2494,16.7483 20.6824,13.8463 24.1114,11.4233 C26.8834,9.4623 28.7854,7.5343 29.6544,6.5833 C30.5234,7.5343 32.4244,9.4623 35.1974,11.4233 C38.6254,13.8463 44.0584,16.7483 50.6974,17.0433 L51.8384,29.3063 C52.5634,37.0963 49.0784,44.7883 42.7444,49.3803 L42.7444,49.3803 Z" id="Fill-5"></path>
                <path d="M6.8648,49.4227 C4.5938,49.4227 2.7458,51.2707 2.7458,53.5417 C2.7458,55.8127 4.5938,57.6597 6.8648,57.6597 C9.1358,57.6597 10.9828,55.8127 10.9828,53.5417 C10.9828,51.2707 9.1358,49.4227 6.8648,49.4227 M6.8648,56.2867 C5.3498,56.2867 4.1188,55.0547 4.1188,53.5417 C4.1188,52.0277 5.3498,50.7957 6.8648,50.7957 C8.3788,50.7957 9.6108,52.0277 9.6108,53.5417 C9.6108,55.0547 8.3788,56.2867 6.8648,56.2867" id="Fill-8"></path>
                <path d="M55.6011,-0.0002 C52.5731,-0.0002 50.1101,2.4628 50.1101,5.4908 C50.1101,8.5198 52.5731,10.9828 55.6011,10.9828 C58.6281,10.9828 61.0911,8.5198 61.0911,5.4908 C61.0911,2.4628 58.6281,-0.0002 55.6011,-0.0002 M55.6011,9.6098 C53.3301,9.6098 51.4821,7.7618 51.4821,5.4908 C51.4821,3.2198 53.3301,1.3728 55.6011,1.3728 C57.8721,1.3728 59.7191,3.2198 59.7191,5.4908 C59.7191,7.7618 57.8721,9.6098 55.6011,9.6098" id="Fill-10"></path>
                <path d="M7.8941,4.8045 C8.4631,4.8045 8.9241,5.2655 8.9241,5.8345 C8.9241,6.4025 8.4631,6.8635 7.8941,6.8635 C7.3261,6.8635 6.8651,6.4025 6.8651,5.8345 C6.8651,5.2655 7.3261,4.8045 7.8941,4.8045" id="Fill-12"></path>
                <path d="M1.0298,28.1434 C1.5988,28.1434 2.0598,28.6044 2.0598,29.1734 C2.0598,29.7414 1.5988,30.2024 1.0298,30.2024 C0.4608,30.2024 -0.0002,29.7414 -0.0002,29.1734 C-0.0002,28.6044 0.4608,28.1434 1.0298,28.1434" id="Fill-14"></path>
                <path d="M41.5289,5.4915 C42.0969,5.4915 42.5589,5.9525 42.5589,6.5215 C42.5589,7.0895 42.0969,7.5505 41.5289,7.5505 C40.9599,7.5505 40.4989,7.0895 40.4989,6.5215 C40.4989,5.9525 40.9599,5.4915 41.5289,5.4915" id="Fill-17"></path>
                <path d="M58.0035,22.6521 C58.5725,22.6521 59.0335,23.1131 59.0335,23.6821 C59.0335,24.2501 58.5725,24.7111 58.0035,24.7111 C57.4345,24.7111 56.9735,24.2501 56.9735,23.6821 C56.9735,23.1131 57.4345,22.6521 58.0035,22.6521" id="Fill-19"></path>
                <path d="M58.0025,46.6766 C58.5715,46.6766 59.0325,47.1376 59.0325,47.7066 C59.0325,48.2756 58.5715,48.7366 58.0025,48.7366 C57.4345,48.7366 56.9735,48.2756 56.9735,47.7066 C56.9735,47.1376 57.4345,46.6766 58.0025,46.6766" id="Fill-21"></path>
                <path d="M44.275,54.9134 C44.844,54.9134 45.305,55.3744 45.305,55.9434 C45.305,56.5124 44.844,56.9734 44.275,56.9734 C43.706,56.9734 43.245,56.5124 43.245,55.9434 C43.245,55.3744 43.706,54.9134 44.275,54.9134" id="Fill-23"></path>
                <path d="M16.8179,56.9734 C17.3869,56.9734 17.8479,57.4344 17.8479,58.0034 C17.8479,58.5714 17.3869,59.0324 16.8179,59.0324 C16.2489,59.0324 15.7879,58.5714 15.7879,58.0034 C15.7879,57.4344 16.2489,56.9734 16.8179,56.9734" id="Fill-25"></path>
                <path d="M37.0523,25.4593 L35.2793,27.2323 C33.6683,25.8533 31.6433,25.1003 29.5003,25.1003 C24.5883,25.1003 20.5923,29.0953 20.5923,34.0073 C20.5923,38.9193 24.5883,42.9153 29.5003,42.9153 C35.3373,42.9153 39.6563,37.3423 38.0883,31.6473 L40.6633,29.0713 C41.6593,28.0763 41.6593,26.4553 40.6633,25.4593 C39.6653,24.4613 38.0493,24.4613 37.0523,25.4593 M29.5003,41.5423 C25.3453,41.5423 21.9653,38.1623 21.9653,34.0073 C21.9653,29.8523 25.3453,26.4723 29.5003,26.4723 C31.2763,26.4723 32.9563,27.0843 34.3063,28.2053 L30.2733,32.2383 L29.4383,31.4033 C28.9543,30.9203 28.3143,30.6543 27.6313,30.6543 C26.2203,30.6543 25.0763,31.7973 25.0763,33.2093 C25.0763,33.8913 25.3423,34.5323 25.8253,35.0153 L29.7873,38.9773 C30.0563,39.2453 30.4903,39.2453 30.7573,38.9773 L36.9383,32.7983 C37.6853,37.3933 34.1183,41.5423 29.5003,41.5423 M39.6933,28.1013 L30.2733,37.5213 L26.7953,34.0443 C26.5733,33.8213 26.4493,33.5243 26.4493,33.2093 C26.4493,32.5563 26.9793,32.0273 27.6313,32.0273 C27.9473,32.0273 28.2433,32.1503 28.4663,32.3733 L29.7873,33.6943 C30.0563,33.9623 30.4903,33.9623 30.7573,33.6943 L38.0233,26.4303 C38.4843,25.9683 39.2323,25.9683 39.6933,26.4303 C40.1543,26.8903 40.1543,27.6403 39.6933,28.1013" id="Fill-27"></path>
            </g>
        </g>
    </g>
</svg>