<?xml version="1.0" encoding="UTF-8"?>
<svg width="51px" height="52px" viewBox="0 0 51 52" version="1.1" xmlns="http://www.w3.org/2000/svg" xmlns:xlink="http://www.w3.org/1999/xlink">
    <!-- Generator: sketchtool 53 (72520) - https://sketchapp.com -->
    <title>F7EB8BA1-3889-4DDA-A36B-6D8049B8C6DE</title>
    <desc>Created with sketchtool.</desc>
    <g id="Page-1" stroke="none" stroke-width="1" fill="none" fill-rule="evenodd">
        <g id="08--alwadi--Our-Commitment" transform="translate(-244.000000, -1585.000000)" fill="#0C892E">
            <g id="Group-8" transform="translate(244.000000, 1585.000000)">
                <path d="M10.2651,45.8809 L10.0961,51.2759 L11.2241,51.2759 L11.3931,45.5969 C11.3911,45.4469 11.3291,45.3039 11.2241,45.1999 L1.6921,35.3189 C1.3271,34.9379 1.1251,34.4289 1.1281,33.9009 L1.1281,22.0889 C1.1281,21.2419 1.8091,20.5559 2.6511,20.5559 C3.5001,20.5549 4.1991,21.2339 4.2301,22.0889 L4.3991,31.3449 C4.3991,31.4679 4.4391,31.5869 4.5121,31.6849 L8.2341,36.5119 C9.0541,37.4559 10.4801,37.5529 11.4181,36.7269 C12.1881,36.0499 12.4091,34.9369 11.9561,34.0129 L10.2091,30.8899 C9.8501,30.1249 10.1751,29.2109 10.9351,28.8489 C11.5581,28.5529 12.3011,28.7149 12.7461,29.2439 L18.7821,37.3069 C19.0441,37.6299 19.2021,38.0269 19.2331,38.4429 L19.7411,51.2189 L20.8691,51.2189 L20.3611,38.4429 C20.3321,37.7799 20.0961,37.1429 19.6841,36.6249 L13.7051,28.6759 C12.7501,27.5579 11.0771,27.4309 9.9671,28.3919 C9.0581,29.1789 8.7861,30.4839 9.3061,31.5719 L11.0551,34.6949 C11.3591,35.2419 11.1641,35.9339 10.6201,36.2399 C10.1101,36.5279 9.4661,36.3749 9.1371,35.8869 L5.5271,31.1739 L5.3581,22.0889 C5.3271,20.5839 4.0901,19.3889 2.5951,19.4199 L2.5941,19.4199 C1.1521,19.4509 -0.0019,20.6369 0.0001,22.0889 L0.0001,33.9009 C0.0021,34.7279 0.3261,35.5239 0.9021,36.1139 L10.2651,45.8809 Z" id="Fill-1"></path>
                <path d="M50.7632,33.9004 L50.7632,22.0884 C50.7632,20.6154 49.5762,19.4204 48.1122,19.4204 C46.6382,19.4204 45.4352,20.6054 45.4052,22.0884 L45.2352,31.1734 L41.6252,35.8864 C41.3662,36.2064 40.9552,36.3574 40.5542,36.2854 C39.9422,36.1694 39.5372,35.5764 39.6532,34.9594 C39.6742,34.8464 39.7112,34.7394 39.7642,34.6374 L41.5132,31.5144 C42.1472,30.1864 41.5912,28.5914 40.2722,27.9544 C39.1902,27.4304 37.8952,27.7044 37.1132,28.6194 L31.1342,36.5694 C30.7262,37.0884 30.4902,37.7234 30.4572,38.3854 L29.8942,51.2184 L31.0222,51.2184 L31.5292,38.4434 C31.5492,38.0064 31.7072,37.5884 31.9812,37.2504 L37.9582,29.3004 C38.5042,28.6554 39.4652,28.5764 40.1062,29.1244 C40.6312,29.5734 40.7912,30.3204 40.4962,30.9474 L38.7482,34.0704 C38.1982,35.1964 38.6582,36.5564 39.7762,37.1124 C40.6932,37.5664 41.7992,37.3434 42.4722,36.5694 L46.2502,31.7424 C46.3242,31.6434 46.3632,31.5234 46.3632,31.4024 L46.5332,22.1454 C46.5632,21.2674 47.2952,20.5824 48.1652,20.6134 L48.1672,20.6134 C48.9662,20.6414 49.6062,21.2864 49.6352,22.0884 L49.6352,33.9004 C49.6362,34.4284 49.4342,34.9374 49.0712,35.3204 L39.4822,45.2564 C39.3752,45.3614 39.3152,45.5044 39.3132,45.6544 L39.4822,51.3324 L40.6102,51.3324 L40.4412,45.9374 L49.8612,36.1154 C50.4362,35.5224 50.7602,34.7274 50.7632,33.9004" id="Fill-3"></path>
                <path d="M25.0991,0.001 C22.3281,-0.042 20.0451,2.185 20.0021,4.976 C19.9861,6.015 20.2891,7.033 20.8701,7.894 C20.4301,8.223 20.0321,8.604 19.6841,9.028 C19.3681,8.647 19.0081,8.306 18.6131,8.007 C20.0111,5.78 19.3521,2.835 17.1401,1.427 C14.9281,0.019 12.0021,0.683 10.6031,2.909 C9.6261,4.466 9.6261,6.45 10.6031,8.007 C9.0021,9.211 8.0611,11.105 8.0651,13.117 L8.0651,16.524 C8.0651,18.093 9.3281,19.363 10.8851,19.363 L18.2181,19.363 C18.4581,20.688 19.5891,21.659 20.9251,21.691 L29.2731,21.691 C30.6311,21.687 31.7921,20.709 32.0371,19.363 L39.3701,19.363 C40.9271,19.363 42.1891,18.093 42.1891,16.524 L42.1891,13.117 C42.1941,11.105 41.2531,9.211 39.6511,8.007 C41.0501,5.78 40.3901,2.835 38.1781,1.427 C35.9671,0.019 33.0401,0.683 31.6421,2.909 C30.6641,4.466 30.6641,6.45 31.6421,8.007 C31.2471,8.306 30.8881,8.648 30.5701,9.028 C30.2051,8.601 29.7881,8.219 29.3291,7.894 C30.8871,5.585 30.2911,2.441 27.9981,0.874 C27.1441,0.29 26.1311,-0.016 25.0991,0.001 L25.0991,0.001 Z M25.0991,1.137 C27.2801,1.137 29.0471,2.916 29.0471,5.11 C29.0471,7.307 27.2801,9.086 25.0991,9.086 C22.9181,9.086 21.1511,7.307 21.1511,5.11 C21.1511,2.916 22.9181,1.137 25.0991,1.137 L25.0991,1.137 Z M14.5521,1.761 C16.5451,1.761 18.1621,3.388 18.1621,5.395 C18.1621,7.401 16.5451,9.028 14.5521,9.028 C12.5581,9.028 10.9421,7.401 10.9421,5.395 C10.9421,3.388 12.5581,1.761 14.5521,1.761 L14.5521,1.761 Z M18.1051,13.345 L18.1051,18.284 L10.8291,18.284 C9.8941,18.284 9.1371,17.522 9.1371,16.582 L9.1371,13.175 C9.1091,11.47 9.9101,9.858 11.2801,8.858 C13.1191,10.654 16.0411,10.654 17.8791,8.858 C18.3101,9.178 18.6901,9.561 19.0071,9.994 C18.4241,11.014 18.1131,12.168 18.1051,13.345 L18.1051,13.345 Z M35.6461,1.761 C37.6401,1.761 39.2561,3.388 39.2561,5.395 C39.2561,7.401 37.6401,9.028 35.6461,9.028 C33.6531,9.028 32.0371,7.401 32.0371,5.395 C32.0371,3.388 33.6531,1.761 35.6461,1.761 L35.6461,1.761 Z M32.3191,8.858 C34.1571,10.654 37.0801,10.654 38.9181,8.858 C40.2731,9.848 41.0711,11.433 41.0611,13.117 L41.0611,16.524 C41.0611,17.466 40.3041,18.228 39.3701,18.228 L32.0931,18.228 L32.0931,13.345 C32.1021,12.174 31.8101,11.02 31.2471,9.994 C31.5471,9.564 31.9091,9.183 32.3191,8.858 L32.3191,8.858 Z M30.9101,13.345 L30.9101,18.853 C30.9101,19.794 30.1511,20.556 29.2161,20.556 L20.9251,20.556 C19.9911,20.556 19.2331,19.794 19.2331,18.853 L19.2331,13.345 C19.2281,11.527 20.0881,9.817 21.5461,8.746 C23.5001,10.687 26.6411,10.687 28.5961,8.746 C30.0821,9.799 30.9661,11.515 30.9651,13.345 L30.9101,13.345 Z" id="Fill-6"></path>
            </g>
        </g>
    </g>
</svg>