<?xml version="1.0" encoding="utf-8"?>
<!-- Generator: Adobe Illustrator 21.1.0, SVG Export Plug-In . SVG Version: 6.00 Build 0)  -->
<svg version="1.1" id="Layer_1" xmlns="http://www.w3.org/2000/svg" xmlns:xlink="http://www.w3.org/1999/xlink" x="0px" y="0px"
	 viewBox="0 0 21 21" style="enable-background:new 0 0 21 21;" xml:space="preserve">
<style type="text/css">
	.st0{fill:#FFFFFF;}
</style>
<title>43FB77A0-0550-4611-808E-8EA09EABA495</title>
<desc>Created with sketchtool.</desc>
<g id="Page-1">
	<g id="Desktop" transform="translate(-1418.000000, -129.000000)">
		<g id="Globe-Icon" transform="translate(1418.000000, 129.000000)">
			<path id="Shape" class="st0" d="M10.5,0C5,0,0.6,4.2,0.1,9.4l0,0C0,9.8,0,10.1,0,10.5s0,0.7,0.1,1.1l0,0C0.6,16.9,5,21,10.5,21
				C16.3,21,21,16.3,21,10.5S16.3,0,10.5,0z M18.8,7.4c-1.2-0.6-2.6-1-4-1.3c-0.2-1.3-0.6-2.8-1.3-4C16,3.1,17.9,5,18.8,7.4z
				 M9.8,1.7c0.2,0,0.5,0,0.7,0s0.5,0,0.7,0c1,0.9,1.6,2.9,1.9,4.2c-0.8-0.1-1.7-0.1-2.6-0.1s-1.8,0-2.6,0.1
				C8.2,4.6,8.8,2.5,9.8,1.7L9.8,1.7z M1.7,11.2c0-0.2,0-0.5,0-0.7s0-0.5,0-0.7c0.9-1,2.9-1.6,4.2-1.9c-0.1,0.8-0.1,1.7-0.1,2.6
				s0,1.8,0.1,2.6C4.6,12.8,2.5,12.2,1.7,11.2z M2.2,13.6c1.2,0.6,2.6,1,4,1.3c0.2,1.3,0.6,2.8,1.3,4C5,17.9,3.1,16,2.2,13.6z
				 M6.2,6.2c-1.3,0.2-2.8,0.6-4,1.3C3.1,5,5,3.1,7.4,2.2C6.8,3.4,6.4,4.8,6.2,6.2z M11.2,19.3c-0.2,0-0.5,0-0.7,0s-0.5,0-0.7,0
				c-1-0.9-1.6-2.9-1.9-4.2c0.8,0.1,1.7,0.1,2.6,0.1s1.8,0,2.6-0.1C12.8,16.4,12.2,18.5,11.2,19.3L11.2,19.3z M13.4,13.4
				c-0.9,0.1-1.9,0.2-2.9,0.2s-2-0.1-2.9-0.2c-0.1-0.9-0.2-1.9-0.2-2.9s0.1-2,0.2-2.9c0.9-0.1,1.9-0.2,2.9-0.2s2,0.1,2.9,0.2
				c0.1,0.9,0.2,1.9,0.2,2.9S13.5,12.5,13.4,13.4z M13.6,18.8c0.6-1.2,1-2.6,1.3-4c1.3-0.2,2.8-0.6,4-1.3C17.9,16,16,17.9,13.6,18.8
				z M19.3,11.2c-0.9,1-2.9,1.6-4.2,1.9c0.1-0.8,0.1-1.7,0.1-2.6s0-1.8-0.1-2.6c1.3,0.3,3.4,0.9,4.2,1.9c0,0.2,0,0.5,0,0.7
				S19.3,11,19.3,11.2L19.3,11.2z"/>
		</g>
	</g>
</g>
</svg>
