<?xml version="1.0" encoding="UTF-8"?>
<svg width="13px" height="8px" viewBox="0 0 13 8" version="1.1" xmlns="http://www.w3.org/2000/svg" xmlns:xlink="http://www.w3.org/1999/xlink">
    <!-- Generator: sketchtool 53 (72520) - https://sketchapp.com -->
    <title>B1564938-2249-4784-A1EB-235BBB4A5461</title>
    <desc>Created with sketchtool.</desc>
    <g id="Page-1" stroke="none" stroke-width="1" fill="none" fill-rule="evenodd">
        <g id="Desktop" transform="translate(-1476.000000, -137.000000)" fill="#FFFFFF" fill-rule="nonzero">
            <g id="Dropdown-Arrow-Icon" transform="translate(1482.500000, 141.000000) rotate(-270.000000) translate(-1482.500000, -141.000000) translate(1478.500000, 134.500000)">
                <path d="M7.30993999,6.0317599 L2.00758316,0.691705758 C1.88494612,0.568097007 1.72123632,0.5 1.54667712,0.5 C1.37211792,0.5 1.20840812,0.568097007 1.08577108,0.691705758 L0.695289317,1.08487329 C0.441200091,1.34106633 0.441200091,1.75745319 0.695289317,2.01325599 L5.14780826,6.49751222 L0.690348963,10.986744 C0.567711921,11.1103528 0.5,11.2751319 0.5,11.4508378 C0.5,11.6267388 0.567711921,11.791518 0.690348963,11.9152243 L1.08083073,12.3082942 C1.20356464,12.431903 1.36717756,12.5 1.54173677,12.5 C1.71629597,12.5 1.88000576,12.431903 2.0026428,12.3082942 L7.30993999,6.96336209 C7.43286764,6.83936309 7.50038582,6.67380347 7.49999834,6.4978049 C7.50038582,6.32112341 7.43286764,6.15566134 7.30993999,6.0317599 Z" id="Path"></path>
            </g>
        </g>
    </g>
</svg>