<?xml version="1.0" encoding="UTF-8"?>
<svg width="26px" height="32px" viewBox="0 0 26 32" version="1.1" xmlns="http://www.w3.org/2000/svg" xmlns:xlink="http://www.w3.org/1999/xlink">
    <!-- Generator: sketchtool 53 (72520) - https://sketchapp.com -->
    <title>C9AD4E20-D705-415C-A620-B9280F6656EB</title>
    <desc>Created with sketchtool.</desc>
    <g id="Page-1" stroke="none" stroke-width="1" fill="none" fill-rule="evenodd">
        <g id="18-alwadi-Contact" transform="translate(-1113.000000, -1025.000000)" fill="#0C892E">
            <g id="Group-6" transform="translate(1113.000000, 1025.000000)">
                <path d="M13.0005778,2.00340157 C9.3470661,2.00340157 6.06343079,3.71256693 3.99184416,6.69259843 C1.92710239,9.66274016 1.44815176,13.4171969 2.71064964,16.735748 C3.02589384,17.5822992 3.53799138,18.4175118 4.23242859,19.2172598 L13.0005778,29.4533543 L21.7687904,19.2176378 C22.4636079,18.4170709 22.9748181,17.584315 23.2882243,16.7424882 C24.5523067,13.4200945 24.07418,9.66280315 22.0089312,6.69253543 C19.9373445,3.71256693 16.6539627,2.00340157 13.0005778,2.00340157 Z M13.0005778,32 C12.7047908,32 12.4251652,31.8714961 12.2333822,31.6473701 L2.70260058,20.5207559 C1.85364681,19.544063 1.22144719,18.5069606 0.822923766,17.4376063 C-0.67236301,13.5070236 -0.107344504,9.06456693 2.33405514,5.55325984 C4.78749669,2.02406299 8.67525498,0 13.0005778,0 C17.3259006,0 21.2137223,2.02406299 23.6671638,5.55325984 C26.1085635,9.06475591 26.6724412,13.5098583 25.1754432,17.4440315 C24.7793915,18.5073386 24.1473187,19.5429921 23.2964001,20.5231496 L13.7678368,31.6473071 C13.5761171,31.8714961 13.2964282,32 13.0005778,32 Z M13.0005778,8.69428661 C10.6783929,8.69428661 8.78920936,10.5720189 8.78920936,12.8799874 C8.78920936,15.1880189 10.6783929,17.0656882 13.0005778,17.0656882 C15.3227627,17.0656882 17.2119462,15.1880189 17.2119462,12.8799874 C17.2119462,10.5720189 15.3227627,8.69428661 13.0005778,8.69428661 Z M13.0005778,19.0691528 C9.5669258,19.0691528 6.77352248,16.2927118 6.77352248,12.8800504 C6.77352248,9.46738898 9.5669258,6.69094803 13.0005778,6.69094803 C16.4342298,6.69094803 19.2276331,9.46738898 19.2276331,12.8800504 C19.2276331,16.2927118 16.4342298,19.0691528 13.0005778,19.0691528 Z" id="Combined-Shape"></path>
            </g>
        </g>
    </g>
</svg>