<?xml version="1.0" encoding="UTF-8"?>
<svg width="29px" height="22px" viewBox="0 0 29 22" version="1.1" xmlns="http://www.w3.org/2000/svg" xmlns:xlink="http://www.w3.org/1999/xlink">
    <!-- Generator: sketchtool 53 (72520) - https://sketchapp.com -->
    <title>D3566EB8-D213-4558-8A80-40089D2071BB</title>
    <desc>Created with sketchtool.</desc>
    <g id="Page-1" stroke="none" stroke-width="1" fill="none" fill-rule="evenodd">
        <g id="18-alwadi-Contact" transform="translate(-1112.000000, -810.000000)" fill="#0C892E">
            <g id="Group-3" transform="translate(1112.000000, 810.000000)">
                <path d="M27.3007813,19.1110615 L19.1565957,11 L27.3007813,2.88888205 L27.3007813,19.1110615 Z M2.90073633,20.3076923 L11.0892715,12.1524615 L13.9585156,14.9854974 C14.2906562,15.3134667 14.8266465,15.3123949 15.1574277,14.9829026 L17.9550781,12.1966308 L26.0992637,20.3076923 L2.90073633,20.3076923 Z M1.69921875,19.1111179 L1.69921875,2.88081538 L9.88259961,10.9610205 L1.69921875,19.1111179 Z M26.099207,1.69230769 L14.5540352,13.1905795 L2.90900586,1.69230769 L26.099207,1.69230769 Z M26.4511719,0 L2.54882812,0 C1.14516016,0 0,1.13926154 0,2.53846154 L0,19.4615385 C0,20.856 1.1400625,22 2.54882812,22 L26.4511719,22 C27.8513281,22 29,20.8645744 29,19.4615385 L29,2.53846154 C29,1.144 27.8599375,0 26.4511719,0 L26.4511719,0 Z" id="Fill-1"></path>
            </g>
        </g>
    </g>
</svg>