<?xml version="1.0" encoding="UTF-8"?>
<svg width="22px" height="35px" viewBox="0 0 22 35" version="1.1" xmlns="http://www.w3.org/2000/svg" xmlns:xlink="http://www.w3.org/1999/xlink">
    <!-- Generator: sketchtool 53 (72520) - https://sketchapp.com -->
    <title>F9DEB4E8-5BF8-423C-9549-D5251DC8211C</title>
    <desc>Created with sketchtool.</desc>
    <g id="Page-1" stroke="none" stroke-width="1" fill="none" fill-rule="evenodd">
        <g id="18-alwadi-Contact" transform="translate(-1115.000000, -913.000000)" fill="#0C892E">
            <g id="Group-5" transform="translate(1115.000000, 913.000000)">
                <path d="M4.49685535,2.11693548 C3.1617044,2.11693548 2.0754717,3.22486895 2.0754717,4.58669355 L2.0754717,30.4133065 C2.0754717,31.775131 3.1617044,32.8830645 4.49685535,32.8830645 L17.5031447,32.8830645 C18.8382956,32.8830645 19.9245283,31.775131 19.9245283,30.4133065 L19.9245283,4.58669355 C19.9245283,3.22486895 18.8382956,2.11693548 17.5031447,2.11693548 L4.49685535,2.11693548 Z M4.49685535,35 C2.01722013,35 0,32.9424093 0,30.4133065 L0,4.58669355 C0,2.05759073 2.01722013,0 4.49685535,0 L17.5031447,0 C19.9827799,0 22,2.05759073 22,4.58669355 L22,30.4133065 C22,32.9424093 19.9827799,35 17.5031447,35 L4.49685535,35 Z M8.78616352,7.19758065 C8.21395597,7.19758065 7.74842767,6.72275202 7.74842767,6.1391129 C7.74842767,5.55547379 8.21395597,5.08064516 8.78616352,5.08064516 L13.2138365,5.08064516 C13.786044,5.08064516 14.2515723,5.55547379 14.2515723,6.1391129 C14.2515723,6.72275202 13.786044,7.19758065 13.2138365,7.19758065 L8.78616352,7.19758065 Z" id="Combined-Shape"></path>
            </g>
        </g>
    </g>
</svg>