<?xml version="1.0" encoding="UTF-8"?>
<svg width="25px" height="25px" viewBox="0 0 25 25" version="1.1" xmlns="http://www.w3.org/2000/svg" xmlns:xlink="http://www.w3.org/1999/xlink">
    <!-- Generator: sketchtool 53 (72520) - https://sketchapp.com -->
    <title>4FA6E8A0-D3C0-4F61-A415-9085D300E30C</title>
    <desc>Created with sketchtool.</desc>
    <g id="Page-1" stroke="none" stroke-width="1" fill="none" fill-rule="evenodd">
        <g id="00--alwadi--Home" transform="translate(-358.000000, -1383.000000)" fill="#FFFFFF" fill-rule="nonzero">
            <g id="iconfinder_play-circle_383091" transform="translate(358.000000, 1383.000000)">
                <path d="M12.1985714,0.178571429 C5.49214286,0.178571429 0.0557142857,5.615 0.0557142857,12.3214286 C0.0557142857,19.0278571 5.49214286,24.4642857 12.1985714,24.4642857 C18.905,24.4642857 24.3414286,19.0278571 24.3414286,12.3214286 C24.3414286,5.615 18.905,0.178571429 12.1985714,0.178571429 Z M12.1985714,22.3214286 C6.67571429,22.3214286 2.19857143,17.8442857 2.19857143,12.3214286 C2.19857143,6.79857143 6.67571429,2.32142857 12.1985714,2.32142857 C17.7214286,2.32142857 22.1985714,6.79857143 22.1985714,12.3214286 C22.1985714,17.8442857 17.7214286,22.3214286 12.1985714,22.3214286 Z" id="Shape"></path>
                <polygon id="Path" points="10 17.1164286 16.4285714 12.3214286 10 7.52642857"></polygon>
            </g>
        </g>
    </g>
</svg>