<?xml version="1.0" encoding="UTF-8"?>
<svg width="16px" height="19px" viewBox="0 0 16 19" version="1.1" xmlns="http://www.w3.org/2000/svg" xmlns:xlink="http://www.w3.org/1999/xlink">
    <!-- Generator: sketchtool 53 (72520) - https://sketchapp.com -->
    <title>DADA17D0-9EB9-4911-A3E2-CEAC46969A01</title>
    <desc>Created with sketchtool.</desc>
    <g id="Page-1" stroke="none" stroke-width="1" fill="none" fill-rule="evenodd">
        <g id="04--alwadi--recipes" transform="translate(-1414.000000, -656.000000)" fill="#0C892E" fill-rule="nonzero">
            <path d="M1426.84211,656 C1428.58358,656 1430,657.452837 1430,659.238837 L1430,671.761163 C1430,673.547605 1428.58358,675 1426.84211,675 L1417.15789,675 C1415.41642,675 1414,673.547605 1414,671.761163 L1414,659.238837 C1414,657.452837 1415.41642,656 1417.15789,656 L1426.84211,656 Z M1427.89474,671.761163 L1427.89474,659.238837 C1427.89474,658.643209 1427.42274,658.209302 1426.84211,658.209302 L1417.15789,658.209302 C1416.57768,658.209302 1416.10526,658.643209 1416.10526,659.238837 L1416.10526,671.761163 C1416.10526,672.356791 1416.57768,672.790698 1417.15789,672.790698 L1426.84211,672.790698 C1427.42274,672.790698 1427.89474,672.356791 1427.89474,671.761163 Z M1425.78947,663.069767 C1426.02232,663.069767 1426.21053,663.267721 1426.21053,663.511628 L1426.21053,664.395349 C1426.21053,664.639256 1426.02232,664.837209 1425.78947,664.837209 L1418.21053,664.837209 C1417.97811,664.837209 1417.78947,664.639256 1417.78947,664.395349 L1417.78947,663.511628 C1417.78947,663.267721 1417.97811,663.069767 1418.21053,663.069767 L1425.78947,663.069767 Z M1425.78947,666.162791 C1426.02232,666.162791 1426.21053,666.360302 1426.21053,666.604651 L1426.21053,667.488372 C1426.21053,667.732721 1426.02232,667.930233 1425.78947,667.930233 L1418.21053,667.930233 C1417.97811,667.930233 1417.78947,667.732721 1417.78947,667.488372 L1417.78947,666.604651 C1417.78947,666.360302 1417.97811,666.162791 1418.21053,666.162791 L1425.78947,666.162791 Z M1425.78947,669.255814 C1426.02232,669.255814 1426.21053,669.453326 1426.21053,669.697674 L1426.21053,670.581395 C1426.21053,670.825744 1426.02232,671.023256 1425.78947,671.023256 L1418.21053,671.023256 C1417.97811,671.023256 1417.78947,670.825744 1417.78947,670.581395 L1417.78947,669.697674 C1417.78947,669.453326 1417.97811,669.255814 1418.21053,669.255814 L1425.78947,669.255814 Z M1425.78947,659.976744 C1426.02232,659.976744 1426.21053,660.174698 1426.21053,660.418605 L1426.21053,661.302326 C1426.21053,661.546233 1426.02232,661.744186 1425.78947,661.744186 L1418.21053,661.744186 C1417.97811,661.744186 1417.78947,661.546233 1417.78947,661.302326 L1417.78947,660.418605 C1417.78947,660.174698 1417.97811,659.976744 1418.21053,659.976744 L1425.78947,659.976744 Z" id="REcipe"></path>
        </g>
    </g>
</svg>